<!-- Generated by IcoMoon.io -->
<svg version="1.1" xmlns="http://www.w3.org/2000/svg" width="32" height="32" viewBox="0 0 32 32">
<path fill="#00ff48" d="M15.993 29.527c0.214 0 0.562-0.080 0.911-0.268 7.607-4.272 10.232-6.080 10.232-10.969v-10.246c0-1.406-0.616-1.848-1.741-2.33-1.58-0.656-6.696-2.491-8.277-3.040-0.362-0.121-0.737-0.201-1.125-0.201-0.375 0-0.75 0.107-1.112 0.201-1.58 0.482-6.696 2.397-8.277 3.040-1.125 0.469-1.741 0.924-1.741 2.33v10.246c0 4.888 2.638 6.683 10.232 10.969 0.348 0.188 0.683 0.268 0.897 0.268zM15.993 27.089c-0.201 0-0.429-0.080-0.83-0.321-6.188-3.75-8.17-4.848-8.17-8.973v-9.348c0-0.455 0.094-0.63 0.455-0.777 2.036-0.804 5.96-2.196 8.022-2.933 0.201-0.080 0.375-0.121 0.522-0.121 0.161 0 0.321 0.040 0.536 0.121 2.063 0.737 5.946 2.223 8.022 2.933 0.362 0.134 0.455 0.321 0.455 0.777v9.348c0 4.125-1.996 5.21-8.17 8.973-0.402 0.241-0.629 0.321-0.844 0.321zM12.658 21.893h6.67c0.938 0 1.38-0.469 1.38-1.473v-5.196c0-0.884-0.348-1.353-1.058-1.446v-1.594c0-2.464-1.473-4.125-3.656-4.125-2.17 0-3.656 1.661-3.656 4.125v1.607c-0.696 0.094-1.045 0.563-1.045 1.433v5.196c0 1.004 0.442 1.473 1.366 1.473zM13.73 12.036c0-1.58 0.911-2.625 2.263-2.625 1.366 0 2.263 1.045 2.263 2.625v1.714l-4.527 0.013z"></path>
</svg>
